<svg width="19" height="19" viewBox="0 0 19 19" fill="none" xmlns="http://www.w3.org/2000/svg">
<path d="M1.0377 12.344V10.0771C-0.158612 12.4264 -0.0795421 13.4603 0.10953 14.0442C1.45022 16.4657 5.75102 12.6016 7.04015 11.9318C7.87849 11.4963 10.0453 14.2396 15.566 17.6377C16.314 18.2292 17.5075 18.3985 18.0478 18.5C16.793 17.1776 13.2277 14.4049 10.4226 11.9318C6.91613 8.84057 7.01926 9.71643 4.02848 11.9318C1.63585 13.7042 1.0377 12.9451 1.0377 12.344Z" fill="#235D3A"/>
<path d="M1.6667 11.9241V0.499975C1.6667 3.94778 6.70974 4.0507 6.70974 7.39559C6.70974 8.41433 6.14368 9.20931 5.57763 9.71129C4.65135 10.5987 2.70774 12.0197 1.6667 11.9241Z" fill="#235D3A"/>
<path d="M4.70281 3.27881C2.89144 2.20844 2.5072 0.980267 2.54151 0.499975H7.43017C9.61206 2.06435 8.06484 4.61676 7.01849 5.69742C7.00134 5.3372 6.51419 4.34917 4.70281 3.27881Z" fill="#235D3A"/>
<path d="M9.33417 3.27881C9.78702 1.79676 9.00826 0.808734 8.56228 0.499975C9.78016 0.499975 12.432 1.22041 13.2966 4.10216C14.1611 6.98392 12.3531 9.41968 11.3411 10.2773C8.51082 10.2773 7.43017 8.73355 7.43017 7.39559C7.43017 6.05764 8.76812 5.13136 9.33417 3.27881Z" fill="#235D3A"/>
</svg>
