<svg width="27" height="24" viewBox="0 0 27 24" fill="none" xmlns="http://www.w3.org/2000/svg">
<path d="M23.4177 23.9999H2.92721C1.31056 23.9999 0 22.6894 0 21.0727V7.90029C0 6.28364 1.31056 4.97308 2.92721 4.97308H23.4177C25.0344 4.97308 26.3449 6.28364 26.3449 7.90029V21.0727C26.3449 22.6894 25.0344 23.9999 23.4177 23.9999Z" stroke="white" stroke-width="2"/>
<path d="M19.7587 15.2184C19.3546 15.2184 19.0269 14.8907 19.0269 14.4866C19.0269 14.0825 19.3546 13.7548 19.7587 13.7548C20.1628 13.7548 20.4905 14.0825 20.4905 14.4866C20.4905 14.8907 20.1628 15.2184 19.7587 15.2184Z" fill="black" stroke="white" stroke-width="2" stroke-linecap="round" stroke-linejoin="round"/>
<path d="M21.9541 4.97314V2.92881C21.9541 1.00554 20.131 -0.395113 18.2727 0.100434L2.17297 4.39368C0.891584 4.73539 0 5.89588 0 7.22205V7.90035" stroke="white" stroke-width="2"/>
</svg>
