<svg width="24" height="24" viewBox="0 0 24 24" fill="none" xmlns="http://www.w3.org/2000/svg">
<path fill-rule="evenodd" clip-rule="evenodd" d="M20.2499 20.2482C16.6844 23.8141 11.4047 24.5845 7.08413 22.5863C6.4463 22.3295 5.92338 22.122 5.42625 22.122C4.04155 22.1302 2.31801 23.4728 1.42223 22.5781C0.526459 21.6823 1.87012 19.9573 1.87012 18.5643C1.87012 18.0671 1.6708 17.5535 1.41403 16.9144C-0.585051 12.5945 0.18644 7.31312 3.75195 3.74839C8.30351 -0.80485 15.6983 -0.80485 20.2499 3.74721C24.8097 8.30749 24.8015 15.6961 20.2499 20.2482Z" stroke="white" stroke-width="1.5" stroke-linecap="round" stroke-linejoin="round"/>
<path d="M16.5959 12.4818H16.6064" stroke="white" stroke-width="2" stroke-linecap="round" stroke-linejoin="round"/>
<path d="M11.9188 12.4818H11.9293" stroke="white" stroke-width="2" stroke-linecap="round" stroke-linejoin="round"/>
<path d="M7.24164 12.4818H7.25214" stroke="white" stroke-width="2" stroke-linecap="round" stroke-linejoin="round"/>
</svg>
